<svg viewBox="0 0 30 30" width="30" height="30" version="1.1" id="svg6" >
  <g id="g16" transform="matrix(0.078125,0,0,0.078125,-5,-5)">
    <path  id="path2" d="m 336,96 c 21.2,0 41.3,8.4 56.5,23.5 15.2,15.1 23.5,35.3 23.5,56.5 v 160 c 0,21.2 -8.4,41.3 -23.5,56.5 C 377.4,407.7 357.2,416 336,416 H 176 c -21.2,0 -41.3,-8.4 -56.5,-23.5 C 104.3,377.4 96,357.2 96,336 V 176 c 0,-21.2 8.4,-41.3 23.5,-56.5 C 134.6,104.3 154.8,96 176,96 h 160 m 0,-32 H 176 C 114.4,64 64,114.4 64,176 v 160 c 0,61.6 50.4,112 112,112 h 160 c 61.6,0 112,-50.4 112,-112 V 176 C 448,114.4 397.6,64 336,64 Z" />
    <path  id="path4" d="m 360,176 c -13.3,0 -24,-10.7 -24,-24 0,-13.3 10.7,-24 24,-24 13.2,0 24,10.7 24,24 0,13.3 -10.8,24 -24,24 z m -104,16 c 35.3,0 64,28.7 64,64 0,35.3 -28.7,64 -64,64 -35.3,0 -64,-28.7 -64,-64 0,-35.3 28.7,-64 64,-64 m 0,-32 c -53,0 -96,43 -96,96 0,53 43,96 96,96 53,0 96,-43 96,-96 0,-53 -43,-96 -96,-96 z" />
  </g>
</svg>